<?xml version="1.0" standalone="no"?>
<!DOCTYPE svg PUBLIC "-//W3C//DTD SVG 20010904//EN"
 "http://www.w3.org/TR/2001/REC-SVG-20010904/DTD/svg10.dtd">
<svg version="1.0" xmlns="http://www.w3.org/2000/svg"
 width="1280.000000pt" height="1280.000000pt" viewBox="0 0 1280.000000 1280.000000"
 preserveAspectRatio="xMidYMid meet">
<metadata>
Created by potrace 1.15, written by Peter Selinger 2001-2017
</metadata>
<g transform="translate(0.000000,1280.000000) scale(0.100000,-0.100000)"
fill="#000000" stroke="none">
<path d="M6105 12794 c-27 -2 -117 -8 -200 -14 -1048 -75 -2091 -427 -2984
-1007 -1379 -895 -2366 -2289 -2746 -3877 -122 -510 -170 -940 -169 -1506 0
-391 12 -567 60 -900 306 -2148 1695 -4002 3679 -4912 671 -308 1376 -490
2165 -560 217 -19 820 -16 1045 6 1553 148 2919 791 3996 1882 973 985 1588
2221 1783 3584 48 332 60 509 60 900 1 371 -7 508 -45 815 -243 1972 -1411
3731 -3147 4738 -802 466 -1680 744 -2627 832 -158 15 -751 28 -870 19z m666
-1434 c1048 -81 2008 -470 2814 -1140 709 -590 1248 -1380 1536 -2252 234
-708 305 -1469 208 -2218 -96 -743 -359 -1447 -777 -2084 l-84 -128 -769 768
-769 769 210 3 210 2 0 575 0 575 -788 0 -787 0 -2118 2118 -2118 2118 33 26
c18 13 83 56 143 95 708 449 1475 706 2305 772 155 12 596 13 751 1z m-2821
-3575 l1555 -1555 -1658 0 -1657 0 0 -575 0 -575 2233 0 2232 0 1344 -1344
1343 -1343 -83 -60 c-290 -209 -670 -415 -1019 -552 -460 -182 -846 -275
-1370 -333 -184 -20 -777 -17 -980 5 -1051 116 -1987 527 -2775 1218 -124 108
-367 353 -472 474 -710 821 -1124 1823 -1204 2914 -15 205 -7 671 16 871 76
695 286 1344 623 1931 102 177 298 478 312 479 3 0 705 -700 1560 -1555z"/>
<path d="M7080 11050 l0 -60 -47 0 c-171 0 -425 -83 -582 -190 -343 -232 -546
-715 -477 -1135 82 -494 448 -865 954 -965 52 -10 95 -20 97 -22 3 -2 -1 -35
-7 -73 -17 -108 -4 -302 27 -414 90 -327 307 -559 605 -646 105 -31 197 -35
783 -35 657 0 705 -3 844 -62 84 -34 176 -111 216 -181 14 -23 35 -73 48 -112
21 -66 23 -91 27 -397 l4 -328 190 0 190 0 -5 353 c-5 383 -9 418 -67 564
-106 263 -323 440 -635 514 -133 31 -299 38 -885 39 -454 0 -556 3 -604 15
-128 33 -231 123 -294 256 -53 111 -67 173 -66 294 0 107 17 182 60 267 53
104 50 188 -8 254 -52 59 -78 67 -227 70 -252 6 -431 63 -586 187 -129 104
-235 268 -270 422 -38 161 -12 369 65 530 117 245 305 374 598 409 l52 7 0
-226 0 -225 195 0 195 0 0 40 0 39 53 -5 c28 -3 84 -10 122 -16 356 -54 642
-305 726 -638 66 -262 10 -531 -170 -813 -27 -44 -52 -96 -56 -117 -13 -78 30
-162 104 -199 33 -17 72 -19 446 -24 441 -5 488 -10 655 -67 443 -154 759
-581 809 -1094 6 -60 11 -273 11 -473 l0 -363 190 0 190 0 0 418 c0 307 -4
443 -15 517 -80 562 -390 1024 -848 1266 -246 129 -472 178 -819 179 -122 0
-198 4 -198 10 0 5 12 40 26 77 96 254 110 560 38 811 -49 168 -117 300 -229
439 -216 270 -564 443 -947 470 l-88 6 0 243 0 244 -195 0 -195 0 0 -60z"/>
<path d="M9570 5660 l0 -580 190 0 190 0 0 580 0 580 -190 0 -190 0 0 -580z"/>
<path d="M10170 5660 l0 -580 190 0 190 0 0 580 0 580 -190 0 -190 0 0 -580z"/>
</g>
</svg>
